# xmcd
#
# Track frame offsets: 
#        150
#        20181
#        37974
#        54022
#        72109
#        92359
#        109393
#        122405
#        141345
#        156037
#        167513
#        180714
#        191535
#        209932
#        220641
#        233222
#        250228
#        264155
#        275206
#        289401
#
# Disc length: 4086 seconds
#
# Revision: 3
# Processed by: cddbd v1.5.2PL0 Copyright (c) Steve Scherf et al.
# Submitted via: ExactAudioCopy v0.99pb4
#
DISCID=270ff414
DTITLE=Enya - Best Of Enya
DYEAR=2002
DGENRE=New Age
TTITLE0=Orinoco Flow
TTITLE1=Caribbean Blue
TTITLE2=Only Time
TTITLE3=Anywhere
TTITLE4=How Can I Keep From Singing
TTITLE5=Wild Child
TTITLE6=Book Of Days
TTITLE7=Storm In Africa
TTITLE8=Only If
TTITLE9=A Day Without Rain
TTITLE10=The Celts
TTITLE11=Watermark
TTITLE12=Flora's Secret
TTITLE13=Tempus Vernum
TTITLE14=Deora Ar Mo Chroi
TTITLE15=Lazy Days
TTITLE16=The First Of Autumn
TTITLE17=Fallen Embers
TTITLE18=Pilgrim
TTITLE19=One By One
EXTD=
EXTT0=
EXTT1=
EXTT2=
EXTT3=
EXTT4=
EXTT5=
EXTT6=
EXTT7=
EXTT8=
EXTT9=
EXTT10=
EXTT11=
EXTT12=
EXTT13=
EXTT14=
EXTT15=
EXTT16=
EXTT17=
EXTT18=
EXTT19=
PLAYORDER=
